<svg width="91" height="26" viewBox="0 0 91 26" fill="none" xmlns="http://www.w3.org/2000/svg">
<path d="M24.192 25H0.9V18.916L13.752 7.432V6.964H1.116V0.879999H23.976V6.964L10.548 18.448V18.916H24.192V25ZM36.2976 25.36C30.1416 25.36 25.8216 22.732 25.8216 15.928C25.8216 10.024 30.1056 6.496 36.1536 6.496C42.4176 6.496 46.4136 9.628 46.4136 15.46C46.4136 16.072 46.3776 16.54 46.3056 17.188H32.0856C32.1936 19.384 33.1656 19.996 36.0456 19.996C38.7816 19.996 39.5016 19.528 39.5016 18.448V18.052H46.2696V18.484C46.2696 22.516 42.4176 25.36 36.2976 25.36ZM36.0096 11.68C33.5256 11.68 32.4816 12.22 32.1936 13.768H39.8616C39.6096 12.22 38.5296 11.68 36.0096 11.68ZM55.6765 25.36C50.6005 25.36 48.2245 22.408 48.2245 18.484V6.856H54.9925V16C54.9925 18.52 55.9645 19.312 59.0605 19.312C62.1925 19.312 62.9485 18.556 62.9485 16.216V6.856H69.7165V25H63.3805V19.492H63.0205C62.6245 22.516 60.6085 25.36 55.6765 25.36ZM81.5001 25.36C75.0921 25.36 71.6721 22.876 71.6721 18.7V18.556H78.4401V18.916C78.4401 19.924 79.0881 20.032 81.5361 20.032C83.8761 20.032 84.2361 19.78 84.2361 19.168C84.2361 18.592 83.9481 18.448 82.2561 18.268L77.0001 17.692C73.2561 17.296 71.2401 15.532 71.2401 12.472C71.2401 9.268 73.7961 6.496 80.6001 6.496C86.9001 6.496 90.2481 8.764 90.2481 13.228V13.372H83.4801V13.156C83.4801 12.22 83.1201 11.788 80.3841 11.788C78.1881 11.788 77.9001 12.076 77.9001 12.76C77.9001 13.264 78.1881 13.516 80.3121 13.732L83.9121 14.128C89.2041 14.704 90.8961 16.468 90.8961 19.528C90.8961 22.912 87.5121 25.36 81.5001 25.36Z" fill="#9B51E0"/>
</svg>
